<?xml version="1.0" standalone="no"?><!DOCTYPE svg PUBLIC "-//W3C//DTD SVG 1.1//EN" "http://www.w3.org/Graphics/SVG/1.1/DTD/svg11.dtd"><svg t="1502344534878" class="icon" style="" viewBox="0 0 1024 1024" version="1.1" xmlns="http://www.w3.org/2000/svg" p-id="2390" xmlns:xlink="http://www.w3.org/1999/xlink" width="200" height="200"><defs><style type="text/css">html, * {  }
</style></defs><path d="M891.38054 893.317659 131.466194 893.317659c-37.255509 0-67.546396-31.492248-67.546396-70.222341L63.919798 208.40654c0-38.730093 30.290887-70.249971 67.546396-70.249971L454.392978 138.15657c15.622816 0 29.9358 8.658194 37.173644 22.506597L598.198198 361.907587l276.821723 0c37.255509 0 83.907015 45.175899 83.907015 83.907015l0 377.279692C958.926936 861.82541 928.636049 893.317659 891.38054 893.317659zM182.765557 809.410644l657.31562 0c19.295462 0 34.938744-15.642259 34.938744-34.938744L875.01992 487.210407c0-22.862707-18.534122-41.395806-41.395806-41.395806L572.796668 445.814602c-15.622816 0-29.9358-8.658194-37.173644-22.506597L438.836677 240.643756c-6.056949-11.431354-17.935488-18.580171-30.872125-18.580171L182.765557 222.063585c-19.295462 0-34.938744 15.642259-34.938744 34.938744L147.826813 774.4719C147.827837 793.768385 163.470095 809.410644 182.765557 809.410644z" p-id="2391"></path><path d="M833.863569 431.822936c-23.508413 0.438998-42.750663-19.263739-42.750663-42.776246l0-53.108568c0-16.550954-13.417591-29.967522-29.967522-29.967522L504.982166 305.9706c-23.512507 0-43.214221-19.24225-42.776246-42.750663 0.425695-22.794146 19.050891-41.156352 41.946344-41.156352l300.945143 0c38.566364 0 69.922513 45.340651 69.922513 83.907015l0 83.907015C875.01992 412.772045 856.657714 431.397241 833.863569 431.822936z" p-id="2392"></path></svg>